# xmcd
#
# Track frame offsets:
#	150
#	14508
#	29073
#	44497
#	59089
#	74070
#	87853
#	101624
#	115119
#	129057
#	139554
#	150427
#	163510
#	175479
#	188515
#	201390
#	212731
#	224277
#	237135
#	249134
#	262952
#	276348
#	289994
#
# Disc length: 4044 seconds
#
# Revision: 1
# Processed by: cddbd v1.5.1PL0 Copyright (c) Steve Scherf et al.
# Submitted via: audiograbber 1.83.01
#
DISCID=560fca17
DTITLE=Female Blues Singers - Complete Recorded Works - 1996 - Vol 01 - A-B (19
DTITLE=24-1923) DOCD-5505
DYEAR=1996
DGENRE=Blues
TTITLE0=I'm Going To Have It Now
TTITLE1=You've Got To Save That Thing
TTITLE2=Rider Needs A Fast Horse
TTITLE3=Ugly Man Blues
TTITLE4=Sweetest Daddy In Town
TTITLE5=Men Sure Are Deceiving
TTITLE6=I Crave your Lovin' Every Day
TTITLE7=I'm Wild About My Patootie
TTITLE8=Papa, You're Too Slow
TTITLE9=My Papa Doesn't Two-Time No Time
TTITLE10=Sing That Song With Feeling
TTITLE11=Anybody Here Want To Try My Cabbage?
TTITLE12=I'm All Broke Out With The Blues
TTITLE13=Backbiting Moan
TTITLE14=I Got Your Water On
TTITLE15=Leaving School Blues
TTITLE16=Black Bottom Blues
TTITLE17=Longing Home
TTITLE18=Home, Sweet Home Blues
TTITLE19=Love Me Mr. Strange Man
TTITLE20=Effervescent Daddy
TTITLE21=I Can't Be Satisfied With One
TTITLE22=Sting Me, Mr. Strange Man
EXTD=Document Records, Austria
EXTT0=
EXTT1=
EXTT2=
EXTT3=
EXTT4=
EXTT5=
EXTT6=
EXTT7=
EXTT8=
EXTT9=
EXTT10=
EXTT11=
EXTT12=
EXTT13=
EXTT14=
EXTT15=
EXTT16=
EXTT17=
EXTT18=
EXTT19=
EXTT20=
EXTT21=
EXTT22=
PLAYORDER=
